<svg xmlns="http://www.w3.org/2000/svg" xmlns:xlink="http://www.w3.org/1999/xlink" viewBox="0 0 64.82 215.65"><defs><style>.\35 7acc344-6847-4212-85ed-67ed4710bc83{fill:#4b9b4b;}.\37 322b8cf-e375-446f-90fe-fb188564d70c{fill:#367338;}.\33 e944a67-8b67-4f3e-af04-aec865c37d13{fill:#225128;}.\39 06b0681-0810-42ce-8d6b-5ba7a008e567{fill:url(#a7dab455-523e-4f46-b0bb-c20e5fed6d12);}.a81e1f6f-d9eb-4c88-9d8b-81095ff38b5e{fill:url(#79b4dec7-79c2-4440-be2d-a6c70d137974);}</style><linearGradient id="a7dab455-523e-4f46-b0bb-c20e5fed6d12" x1="0.1" y1="123.4" x2="64.62" y2="123.4" gradientUnits="userSpaceOnUse"><stop offset="0" stop-color="#1a5251" stop-opacity="0.3"/><stop offset="0.08" stop-color="#1a5251" stop-opacity="0.8"/><stop offset="0.24" stop-color="#1f5651" stop-opacity="0.71"/><stop offset="0.76" stop-color="#72a141" stop-opacity="0"/><stop offset="0.96" stop-color="#aed046" stop-opacity="0.4"/></linearGradient><radialGradient id="79b4dec7-79c2-4440-be2d-a6c70d137974" cx="50.36" cy="13.99" r="49.75" gradientTransform="translate(0 6.67) scale(1 0.52)" gradientUnits="userSpaceOnUse"><stop offset="0.04" stop-color="#b6d433"/><stop offset="0.89" stop-color="#266733"/><stop offset="1" stop-color="#266733"/></radialGradient></defs><title>bar hill</title><g id="6a79a7b4-4284-4173-be70-d7cd6192631f" data-name="Layer 2"><g id="82a20fbf-9c02-43ff-b657-c9130aebeb49" data-name="Layer 2"><path class="57acc344-6847-4212-85ed-67ed4710bc83" d="M.11,184.79v16.39C.11,207.7,14.6,213,32.46,213s32.35-5.28,32.35-11.8V186Z"/><path class="7322b8cf-e375-446f-90fe-fb188564d70c" d="M.11,170V186.4c0,6.52,14.49,11.8,32.35,11.8s32.35-5.28,32.35-11.8V171.25Z"/><path class="3e944a67-8b67-4f3e-af04-aec865c37d13" d="M.11,160.21V172c0,6.51,14.49,11.8,32.35,11.8s32.35-5.29,32.35-11.8V158.7Z"/><path class="57acc344-6847-4212-85ed-67ed4710bc83" d="M.12,142.78v16.39c0,6.52,14.48,11.8,32.35,11.8s32.35-5.28,32.35-11.8V144Z"/><path class="7322b8cf-e375-446f-90fe-fb188564d70c" d="M.12,128v16.39c0,6.52,14.48,11.8,32.35,11.8s32.35-5.28,32.35-11.8V129.24Z"/><path class="3e944a67-8b67-4f3e-af04-aec865c37d13" d="M.12,118.2V130c0,6.52,14.48,11.8,32.35,11.8s32.35-5.28,32.35-11.8V116.69Z"/><path class="57acc344-6847-4212-85ed-67ed4710bc83" d="M0,100.26v16.39c0,6.52,14.48,11.8,32.35,11.8s32.34-5.28,32.34-11.8V101.5Z"/><path class="7322b8cf-e375-446f-90fe-fb188564d70c" d="M0,85.48v16.39c0,6.51,14.48,11.8,32.35,11.8s32.34-5.29,32.34-11.8V86.72Z"/><path class="3e944a67-8b67-4f3e-af04-aec865c37d13" d="M0,75.68v11.8C0,94,14.49,99.27,32.36,99.27S64.7,94,64.7,87.48V74.16Z"/><path class="57acc344-6847-4212-85ed-67ed4710bc83" d="M0,57.25V73.64c0,6.52,14.49,11.8,32.35,11.8s32.35-5.28,32.35-11.8V58.49Z"/><path class="7322b8cf-e375-446f-90fe-fb188564d70c" d="M0,42.47V58.86c0,6.52,14.49,11.8,32.35,11.8s32.35-5.28,32.35-11.8V43.71Z"/><path class="3e944a67-8b67-4f3e-af04-aec865c37d13" d="M0,32.67v11.8C0,51,14.5,56.27,32.36,56.27S64.71,51,64.71,44.47V31.16Z"/><polygon class="906b0681-0810-42ce-8d6b-5ba7a008e567" points="64.62 31.98 0.1 31.16 0.1 214.82 64.62 215.65 64.62 31.98"/><path class="a81e1f6f-d9eb-4c88-9d8b-81095ff38b5e" d="M64.71,32.67c0,5.46-14.18,9.32-32,9.32S.15,38.13,0,32.67C-.5,12.49,14.5,0,32.36,0S64.71,12.46,64.71,32.67Z"/></g></g></svg>